<?xml version="1.0" encoding="UTF-8"?>
<svg width="512pt" height="512pt" version="1.1" viewBox="0 0 512 512" xmlns="http://www.w3.org/2000/svg">
 <defs>
  <clipPath id="a">
   <path d="m94.781 114h322.44v285h-322.44z"/>
  </clipPath>
 </defs>
 <g clip-path="url(#a)">
  <path d="m230.76 362.54c-5.1094 0.21875-10.336 0.33203-15.668 0.33203-68.859 0-120.31-19.004-120.31-35.992v-40.793c20.414 16.762 65.777 26.148 110.91 27.301-0.30469-3.9102-0.28516-7.7695 0.027344-11.559-64.102-1.625-110.93-19.668-110.93-35.875v-40.789c21.836 17.93 72.207 27.422 120.31 27.422 5.5859 0 11.199-0.12891 16.797-0.38281 7.8555-6.4336 17.129-11.258 27.352-13.914-13.531 1.7422-28.383 2.7383-44.148 2.7383-68.859 0-120.31-19.004-120.31-36v-34.559c21.836 17.934 72.207 27.422 120.31 27.422s98.48-9.4883 120.31-27.422v34.559c0 11.668-24.258 24.285-61.758 31.047 10.426-0.54297 20.484 1.1875 29.676 4.7656 13.309-4.1602 24.441-9.4023 32.082-15.676v40.332c7.4883 10.227 12.363 22.555 13.547 36.082 0.64062 7.3164 0.16016 14.594-1.4297 21.715l58.602 33.836c10.609 6.125 14.246 19.691 8.1211 30.301s-19.691 14.246-30.301 8.1172l-58.902-34.004c-11.527 10.25-26.031 16.555-41.434 17.902-19.934 1.7461-38.703-4.8594-52.848-16.906zm-15.668-248.2c68.863 0 120.31 19.004 120.31 35.992 0 16.996-51.449 36-120.31 36-68.859 0-120.31-19.004-120.31-36 0-16.988 51.453-35.992 120.31-35.992zm121.14 213.55c2.832-8.2656 3.8828-16.828 3.1289-25.477-2.9922-34.184-33.246-59.562-67.445-56.57-34.195 2.9922-59.578 33.238-56.59 67.422 2.9922 34.195 33.246 59.582 67.438 56.594 15.043-1.3164 29.102-8.1016 39.594-19.098 0.6875-0.73047 1.8125-0.83203 2.625-0.24609 0.082031 0.058593 0.18359 0.074219 0.30078 0.054687l63.469 36.645c6.0039 3.4648 13.684 1.4062 17.152-4.5977 3.4688-6.0078 1.4102-13.688-4.5977-17.152zm-55.32 19.41c-21.684 1.8984-40.867-14.207-42.766-35.902-1.8945-21.68 14.203-40.863 35.887-42.758 21.691-1.8984 40.883 14.195 42.781 35.875 1.8984 21.695-14.207 40.887-35.902 42.785z" fill="#70d258"/>
 </g>
</svg>
