<?xml version="1.0" encoding="UTF-8"?>
<svg width="512pt" height="512pt" version="1.1" viewBox="0 0 512 512" xmlns="http://www.w3.org/2000/svg">
 <g fill="#ff814a">
  <path d="m248.88 445.87v-164.16l-140.77 81.035c29.102 47.801 81.566 80.543 140.77 83.129zm-19.723-12.473c-10.414 0-1.0352-9.8594 5.1914-9.8594 10.379-0.003906 0.50391 9.8594-5.1914 9.8594zm-13.535-48.297c-2.5664 1.5508-7.2617 2.0703-9.3281 0-3.1172-2.6094 2.0703-5.7305 4.1406-6.25 4.168-2.0703 8.8359-3.6367 13.512-4.1523 2.0703-0.51562 7.793-2.0703 8.332 1.5508 1.0508 2.6016-4.6953 5.2031-6.7695 5.2031-3.6484 1.5547-6.2383 2.0586-9.8867 3.6484zm5.7344-62.879c9.8867 0 18.18 7.8047 18.18 18.18 0 9.3555-8.293 17.664-18.18 17.664-10.379 0-18.18-8.3086-18.18-17.664-0.003907-10.379 7.8008-18.18 18.18-18.18zm-6.2266 87.801c0 6.7422-5.7305 12.445-11.957 12.445-6.7539 0-11.414-5.707-11.414-12.445 0-6.2266 4.6602-11.957 11.414-11.957 6.2266 0.003906 11.957 5.7344 11.957 11.957zm-22.336-62.852c10.379 0 1.543 10.379-5.1914 10.379-10.414 0-1.5664-10.379 5.1914-10.379zm-17.145 46.223c9.8516 0 1.0508 10.402-6.2344 10.402-9.3711 0.003906-0.53516-10.402 6.2344-10.402zm-31.176-34.793c10.379 0 1.0352 10.395-5.1914 10.395-10.414-0.007813-1.5742-10.395 5.1914-10.395z"/>
  <path d="m109.66 187.67 141.86 82.094-0.003907-163.13c-55.605 2.0859-109.65 30.672-141.85 81.035zm121.59-56.625c4.6484-8.8164 9.3438 4.1797 6.2266 9.8867-5.7383 8.8242-9.8867-4.1523-6.2266-9.8867zm-30.68 15.07c2.6094-5.1875 10.414-7.2617 16.113-4.1523 6.2266 3.6367 7.2695 10.922 4.6836 16.641-3.6602 5.6953-10.922 7.7773-16.641 4.1406-5.6992-3.6328-7.7734-10.375-4.1562-16.629zm22.332 42.074c-5.2031 8.8516-9.3438-4.1406-6.2266-9.332 5.1914-9.3672 9.3438 4.1445 6.2266 9.332zm-22.84 19.23c4.6602-8.3086 15.57-11.414 23.891-6.7422 8.332 5.707 11.945 16.098 6.25 24.934-4.6836 8.3203-15.59 11.945-23.898 6.2344-8.3242-4.6953-11.961-16.098-6.2422-24.426zm-14.555-66.488c5.2109-9.3594 9.3789 3.1172 6.2617 9.3438-4.7031 8.8359-8.8555-4.1602-6.2617-9.3438zm-32.727 19.215c3.6602-5.707 10.379-7.7773 16.641-4.1406 5.707 2.6016 7.7773 10.379 4.168 15.59-3.1172 5.707-10.43 7.7773-16.641 5.1914-5.2109-3.6484-7.2773-11.449-4.168-16.641z"/>
  <path d="m397.97 364.81-142.34-81.031v162.61c56.098-2.0664 110.15-31.176 142.34-81.578zm-122.07-54.516c8.3086 5.1914 37.41 26.477 31.691 35.328-4.6953 8.3086-15.582 10.895-23.914 6.2266-20.77-11.445-28.559-52.992-7.7773-41.555zm0.50781 112.18c-4.6484 8.8516-9.3438-4.1406-6.2266-9.8594 5.7188-8.8164 9.8867 3.6328 6.2266 9.8594zm8.3281-58.184c5.2031-8.8125 8.8125 4.168 6.2344 10.402-5.1836 8.8164-9.3633-4.1523-6.2344-10.402zm22.348 42.098c-3.1172 5.707-10.414 7.793-16.113 4.1523-6.2344-2.5898-7.2969-10.395-4.6953-15.582 3.6602-5.7188 10.922-7.793 16.613-4.1523 5.2305 2.5859 7.3047 9.8633 4.1953 15.582zm15.027 6.2266c-5.6836 8.8281-9.8516-4.1406-6.2266-9.875 4.6875-8.8281 8.8398 4.1641 6.2266 9.875zm8.8555-59.211c-1.543 3.1094-2.0703 6.7266-2.0703 10.379-0.50781 2.6016-2.082 7.2695-5.2031 8.3203-3.1172 1.0352-3.1172-4.1523-3.1172-6.2344 1.0508-5.2031 1.543-9.8711 3.1172-14.547 0.54297-2.082 2.6094-6.7695 5.2031-6.25 3.6289 0.54688 2.5977 6.2539 2.0703 8.332zm23.367 39.988c-3.1172 5.1875-10.379 7.2695-16.113 4.1523-5.6953-3.6367-7.7656-10.379-4.1523-16.629 3.1172-5.707 9.8867-7.7773 16.113-4.1406 5.7266 3.6289 7.8008 10.391 4.1523 16.617z"/>
  <path d="m256.69 454.7v31.703c69.621-2.082 136.63-37.93 175.58-100.78l-26.492-15.59c-33.762 52.449-90.395 82.598-149.09 84.668z"/>
  <path d="m100.31 367.95-27.535 15.555c37.41 59.77 101.84 100.29 176.11 102.36v-31.172c-62.848-2.5898-117.4-36.359-148.57-86.742z"/>
  <path d="m410.46 191.85c29.066 55.051 26.98 119.47-0.54297 171.94l26.492 15.582c33.254-61.301 35.871-137.66 1.0352-203.63z"/>
  <path d="m267.61 70.789v186.51l159.98-92.488c-33.773-54.012-92.484-90.891-159.98-94.023zm22.844 14.555c11.414 0 1.5664 10.922-6.2344 10.922-11.949 0-0.53516-10.922 6.2344-10.922zm14.555 54.543c3.1172-1.0352 8.8008-2.5859 11.43 0 3.1172 2.6016-2.625 5.707-4.6953 6.7422-4.6484 2.082-10.379 3.6367-16.113 5.2109-2.0703 0.51562-8.293 2.0742-9.3438-2.0938-0.49219-3.6367 5.7305-5.707 7.2695-6.2266 4.1562-1.0234 7.8086-2.0742 11.453-3.6328zm-5.7188 71.18c-10.922 0-20.793-8.8359-20.793-19.738 0-11.957 9.8711-20.793 20.793-20.793 10.91 0 20.266 8.8359 20.266 20.793 0 10.898-9.3555 19.738-20.266 19.738zm20.266-86.234c-7.8125 0-13.496-6.2344-13.496-13.004 0-7.7773 5.6836-14.012 13.496-14.012 7.2617 0 13.484 6.2344 13.484 14.012 0 6.7617-6.2266 13.004-13.484 13.004zm31.664 5.6914c-11.945 0-1.543-11.93 6.2344-11.93 11.457-0.003906 1.043 11.93-6.2344 11.93zm34.84 38.965c-11.465 0-1.0352-11.414 6.2266-11.414 11.41 0 1.0312 11.414-6.2266 11.414z"/>
  <path d="m97.734 189.75-27.035-16.086c-32.707 61.801-35.828 137.65-0.52344 203.63l27.02-15.59c-29.105-56.109-27.02-120 0.53906-171.95z"/>
  <path d="m402.66 196-141.82 82.074 140.78 81.551c26.477-49.332 28.562-110.63 1.0352-163.62zm-0.50391 23.887c4.6602 9.3711-8.332 5.7188-11.957 0-4.6836-8.8203 8.3047-6.2188 11.957 0zm-18.715 14.039c4.1406 0.51562 19.215 10.379 21.301 13.484 3.6367 5.7305 1.5664 13.512-4.168 16.113-5.1758 3.6367-12.996 1.5508-16.098-4.1562-5.1992-8.3047-9.8828-25.441-1.0352-25.441zm-73.773 48.301c-4.6602-8.8281-2.0703-20.254 6.2266-24.926 8.8359-4.668 35.328 6.7422 40.023 15.062 4.6484 9.3438-13.004 11.414-21.844 16.113-8.2969 4.6602-19.723 2.0664-24.406-6.25zm35.871 11.953c-5.2383-9.3711 8.293-6.2344 11.918-1.043 4.6836 8.8203-8.3047 6.2344-11.918 1.043zm18.676-31.172c-3.6523-3.1172-7.793-5.707-10.379-9.3438-2.082-2.082-5.7188-6.25-3.6523-7.8047 3.1094-3.1172 7.2695 0.51562 8.3086 2.6172 3.1094 2.0703 5.2266 4.668 8.3438 6.7422 2.0703 1.5508 5.6836 5.707 5.1758 8.3086-1.5742 3.6328-5.7188 0.51562-7.7969-0.51953zm15.582 67.016c-5.2031-9.3555 7.793-6.25 11.438 0 5.1992 8.8281-8.2969 6.2266-11.438 0zm8.3281-18.18c-5.1914 2.6016-12.488 1.5508-15.605-4.668-3.6094-5.7188-1.543-12.996 4.1523-16.113 5.7188-3.1172 12.98-1.0352 16.641 4.1523 3.1211 5.707 1.0508 12.992-5.1875 16.629zm5.6953-25.984c-4.6602-8.3086 8.332-5.707 11.957 0 5.1797 8.8359-8.3086 6.2383-11.957 0z"/>
  <path d="m435.91 159.11 31.176-17.664c-42.094-67.523-115.34-113.25-199.48-115.84v35.844c71.16 2.6016 132.43 41.035 168.3 97.664z"/>
  <path d="m104.45 356.52 142.35-82.078-140.77-81.035c-27.02 49.344-29.102 110.64-1.5781 163.11zm1.0352-23.371c-5.1758-8.8359 8.3438-5.1914 11.465 0 5.1797 9.3438-8.3438 5.707-11.465 0zm68.09-69.102c8.293-4.6758 19.215-2.0703 24.391 7.2852 4.6602 8.293 2.082 19.215-6.2109 23.891-8.8516 5.707-20.266 2.0742-24.949-6.2266-4.6875-8.8398-2.0664-19.23 6.7695-24.949zm-30.145 25.984c3.1172 2.5859 7.2617 6.2344 10.395 9.3438 2.0703 1.5508 5.1914 6.2266 3.1172 8.3203-2.5898 2.082-6.7422-1.5664-8.3203-2.6172-2.6016-3.1172-4.6836-5.1875-7.793-7.2695-2.0703-1.0234-5.6953-5.1914-5.1914-8.8164 1.5742-3.1289 5.7188 0.003907 7.793 1.0391zm-16.098-67.02c5.7188 8.8359-7.2695 6.25-10.922 0.51563-5.6992-8.8203 8.3047-6.2344 10.922-0.51563zm-8.3008 18.695c5.6836-3.6367 12.453-1.5664 16.098 4.1523 3.625 5.7188 1.543 12.996-4.168 16.113-5.7188 3.625-12.98 1.5508-16.641-4.1523-2.5586-6.2344-1.5352-13.004 4.7109-16.113zm-12.5 47.289c5.7188-2.6094 13.523-1.043 16.641 5.1914 3.1172 5.1914 1.543 11.945-4.6836 15.59-5.707 3.625-12.461 1.543-16.113-4.1797-3.1016-5.707-1.0352-12.98 4.1562-16.602z"/>
  <path d="m250.97 97.809v-31.172c-69.633 2.0703-136.64 37.93-176.12 100.78l27.035 16.113c33.754-53.008 90.371-83.641 149.08-85.723z"/>
 </g>
</svg>
