<?xml version="1.0" encoding="UTF-8"?>
<svg width="512pt" height="512pt" version="1.1" viewBox="0 0 512 512" xmlns="http://www.w3.org/2000/svg">
 <g fill="#c362dd">
  <path d="m56 48c0 4.418-3.582 8-8 8s-8-3.582-8-8 3.582-8 8-8 8 3.582 8 8"/>
  <path d="m88 48c0 4.418-3.582 8-8 8s-8-3.582-8-8 3.582-8 8-8 8 3.582 8 8"/>
  <path d="m120 48c0 4.418-3.582 8-8 8s-8-3.582-8-8 3.582-8 8-8 8 3.582 8 8"/>
  <path d="m40 264h272v-160h-272zm16-144h240v128h-240z"/>
  <path d="m472 120.81v-112.81h-464v368h328v44c0 46.32 37.68 84 84 84s84-37.68 84-84v-260c0-19.312-13.77-35.473-32-39.191zm-16-48.809h-48v-48h48zm-64-48v48h-368v-48zm-56 136v200h-312v-272h432v32h-80c-22.055 0-40 17.945-40 40zm152 260c0 37.496-30.504 68-68 68s-68-30.504-68-68v-260c0-13.23 10.77-24 24-24h88c13.23 0 24 10.77 24 24z"/>
  <path d="m384 160c0 4.418-3.582 8-8 8s-8-3.582-8-8 3.582-8 8-8 8 3.582 8 8"/>
  <path d="m368 184h24v16h-24z"/>
  <path d="m408 184h24v16h-24z"/>
  <path d="m448 184h24v16h-24z"/>
  <path d="m368 216h24v16h-24z"/>
  <path d="m408 216h24v16h-24z"/>
  <path d="m448 216h24v16h-24z"/>
  <path d="m368 248h24v16h-24z"/>
  <path d="m408 248h24v16h-24z"/>
  <path d="m448 248h24v16h-24z"/>
  <path d="m368 280h24v16h-24z"/>
  <path d="m408 280h24v16h-24z"/>
  <path d="m448 280h24v16h-24z"/>
  <path d="m80 144h192v16h-192z"/>
 </g>
</svg>
