<?xml version="1.0" encoding="UTF-8"?>
<svg width="512pt" height="512pt" version="1.1" viewBox="0 0 512 512" xmlns="http://www.w3.org/2000/svg">
 <g fill="#00bac2">
  <path d="m170.67 512h-138.67c-8.4883 0-16.625-3.3711-22.629-9.3711-6-6.0039-9.3711-14.141-9.3711-22.629v-352h21.332v352c0 2.8281 1.125 5.543 3.125 7.543s4.7148 3.125 7.543 3.125h138.67z"/>
  <path d="m512 170.67h-21.332v-138.67c0-2.8281-1.125-5.543-3.125-7.543s-4.7148-3.125-7.543-3.125h-448c-5.8906 0-10.668 4.7773-10.668 10.668v74.668h-21.332v-74.668c0-8.4883 3.3711-16.625 9.3711-22.629 6.0039-6 14.141-9.3711 22.629-9.3711h448c8.4883 0 16.625 3.3711 22.629 9.3711 6 6.0039 9.3711 14.141 9.3711 22.629z"/>
  <path d="m10.668 64h490.67v21.332h-490.67z"/>
  <path d="m42.668 32h21.332v21.332h-21.332z"/>
  <path d="m85.332 32h21.332v21.332h-21.332z"/>
  <path d="m128 32h21.332v21.332h-21.332z"/>
  <path d="m448 32h21.332v21.332h-21.332z"/>
  <path d="m480 512h-256c-8.4883 0-16.625-3.3711-22.629-9.3711-6-6.0039-9.3711-14.141-9.3711-22.629v-256c0-8.4883 3.3711-16.625 9.3711-22.629 6.0039-6 14.141-9.3711 22.629-9.3711h256c8.4883 0 16.625 3.3711 22.629 9.3711 6 6.0039 9.3711 14.141 9.3711 22.629v213.33h-21.332v-213.33c0-2.8281-1.125-5.543-3.125-7.543s-4.7148-3.125-7.543-3.125h-256c-5.8906 0-10.668 4.7773-10.668 10.668v256c0 2.8281 1.125 5.543 3.125 7.543s4.7148 3.125 7.543 3.125h256c2.8281 0 5.543-1.125 7.543-3.125s3.125-4.7148 3.125-7.543v-21.332h21.332v21.332c0 8.4883-3.3711 16.625-9.3711 22.629-6.0039 6-14.141 9.3711-22.629 9.3711z"/>
  <path d="m202.67 256h298.67v21.332h-298.67z"/>
  <path d="m234.67 224h21.332v21.332h-21.332z"/>
  <path d="m277.33 224h21.332v21.332h-21.332z"/>
  <path d="m320 224h21.332v21.332h-21.332z"/>
  <path d="m448 224h21.332v21.332h-21.332z"/>
  <path d="m373.33 480h-106.66c-5.8906 0-10.668-4.7773-10.668-10.668v-106.66c0-5.8906 4.7773-10.668 10.668-10.668h42.668v21.332h-32.004v85.332h85.332l0.003907-31.996h21.332v42.668-0.003907c0 2.832-1.125 5.543-3.125 7.543s-4.7109 3.125-7.543 3.125z"/>
  <path d="m437.33 416h-106.66c-5.8906 0-10.668-4.7773-10.668-10.668v-106.66c0-5.8906 4.7773-10.668 10.668-10.668h106.66c2.832 0 5.543 1.125 7.543 3.125s3.125 4.7109 3.125 7.543v106.66c0 2.832-1.125 5.543-3.125 7.543s-4.7109 3.125-7.543 3.125zm-96-21.332h85.332l0.003907-85.336h-85.336z"/>
  <path d="m170.67 213.33h-117.34c-5.8906 0-10.664-4.7734-10.664-10.664v-85.336c0-5.8906 4.7734-10.664 10.664-10.664h405.34c2.8281 0 5.5391 1.1211 7.543 3.1211 2 2.0039 3.1211 4.7148 3.1211 7.543v53.332l-21.332 0.003907v-42.668h-384v64h106.67z"/>
  <path d="m85.332 266.67h85.332v21.332h-85.332z"/>
  <path d="m42.668 309.33h128v21.332h-128z"/>
  <path d="m42.668 352h128v21.332h-128z"/>
  <path d="m42.668 394.67h128v21.332h-128z"/>
  <path d="m42.668 266.67h21.332v21.332h-21.332z"/>
 </g>
</svg>
