<?xml version="1.0" encoding="UTF-8"?>
<svg width="512pt" height="512pt" version="1.1" viewBox="0 0 512 512" xmlns="http://www.w3.org/2000/svg">
 <g fill="#00bac2">
  <path d="m227.18 393.34-163.92-346.25c-3.082-6.4922-10.82-9.2578-17.316-6.1992-6.4961 3.0703-9.2578 10.828-6.1797 17.305 0 0 16.746 89.949 59.125 176.88 1.8633 3.7852 3.7773 7.5156 5.6719 11.305l-93.523 173.88c-0.96875 2.0781-14.121 28.461-2.1914 47.5 6.2734 13.859 21.633 18.047 30.742 18.781 0.79297 0.0625 1.5547 0.09375 2.2539 0.10938l104.39 0.0625c7.1523 0.56641 13.426-4.8008 13.992-11.93 0.57422-7.1562-4.7578-13.43-11.91-14l-104.93-0.10156c-0.43359-0.039063-0.875-0.019531-1.3164-0.011719-0.082031-0.039062-6.7383-0.082031-9.0078-5.1211-6.6914-7.6797 0.51562-21.98 1.4648-24.172l85.141-156.76c39.414 70.809 84.02 129.84 84.02 129.84 2.0742 4.3789 6.2422 7.0508 10.715 7.4102 2.1914 0.17969 4.4766-0.21094 6.5781-1.207 6.5-3.0664 9.2852-10.82 6.1953-17.312z"/>
  <path d="m195.52 461.31h174.25v25.422h-174.25z"/>
  <path d="m501.66 150.21c-8.1914-29.551-30.176-70.438-88.484-97.367-101.09-46.688-219.66 46.777-273.73 98.031l58.496 123.2 14.285-15.32c51.973-56.301 123.64-96.762 147.82-90.855 10.844 2.6523 17.406 8.9609 19.43 16 3.1602 10.93-5.6133 31.699-11.555 42.59l-21.531 41.926 116.31 50.664 13.645-25.75c9.3047-19.195 43.172-78.605 25.309-143.12zm-54.828 130.21c-5.0781-0.41016-8.8789-4.8594-8.4648-9.9375 0.39453-5.0898 4.8594-8.8867 9.9414-8.4805 5.0859 0.41016 8.8711 4.8594 8.4648 9.9492-0.39453 5.082-4.8477 8.875-9.9414 8.4688z"/>
  <path d="m351.59 292.23c-11.816 10.68-37.773 35.758-54.773 64.262-23.234 38.949-30.949 86.078-30.949 86.078s-0.88672 9.8008 4.7891 11.184c7.3984 1.7734 8.9023-4.4297 10.566-7.6797 1.9141-3.8008 6.1914-16.012 18.312-37.582 8.9766-15.938 19.066-27.48 19.066-27.48s3.3398 27.867 18.605 37.41c5.207 3.2422 10.293 3.0508 13.926 2.1406-3.125-6.168-7.4336-16.461-8.3359-27.391-1.0859-12.75 1.0938-19.59 1.2031-19.883 0.72656-2.2305 3.2148-3.4219 5.582-2.6211 2.3242 0.83984 3.6445 3.293 2.9141 5.5508-0.046876 0.16016-1.7188 5.832-0.8125 16.629 1.0195 12.43 7.3125 24.238 9.5195 28.066 2.8945 1.1523 6.7188 2.2109 10.629 1.9297 2.3867-0.12891 4.1484-0.96094 5.4688-2.0391-2.8711-5.2383-6.0781-12.32-7.3047-19.641-1.7852-10.523-0.31641-16.051-0.13672-16.66 0.66016-2.2461 3.1094-3.5234 5.4844-2.75 2.3594 0.72266 3.7422 3.1484 3.1094 5.4102-0.03125 0.16797-1.0742 4.5195 0.33984 12.98 0.96094 5.6133 3.3242 11.16 5.6523 15.559 2.9648 0.96094 7.1484 1.8477 10.117 0.67969 11.539-4.7617 9.4258-17.312 9.4258-17.312l-2.7891-15.98s10.426-6.4102 14.336-13.988c8.6797-16.809 7.7812-40.867 7.4766-45.953z"/>
 </g>
</svg>
