<?xml version="1.0" encoding="UTF-8"?>
<svg width="512pt" height="512pt" version="1.1" viewBox="0 0 512 512" xmlns="http://www.w3.org/2000/svg">
 <g fill="#c362dd">
  <path d="m475.73 42.527h-439.47c-19.992 0-36.266 16.586-36.266 36.953v389.99h512v-357.23h0.007812v-32.758c0-20.367-16.273-36.953-36.273-36.953zm-439.47 11.207h439.48c13.824 0 25.062 11.543 25.062 25.742v32.656l-489.61 0.003907v-32.656c0-14.199 11.242-25.746 25.066-25.746zm464.54 404.53h-489.6v-334.93h489.6z"/>
  <path d="m60.777 83.137c0 5.9453-4.8242 10.766-10.77 10.766-5.9453 0-10.77-4.8203-10.77-10.766 0-5.9492 4.8242-10.77 10.77-10.77 5.9453 0 10.77 4.8203 10.77 10.77"/>
  <path d="m93.09 83.137c0 5.9453-4.8242 10.766-10.77 10.766-5.9492 0-10.77-4.8203-10.77-10.766 0-5.9492 4.8203-10.77 10.77-10.77 5.9453 0 10.77 4.8203 10.77 10.77"/>
  <path d="m125.4 83.137c0 5.9453-4.8203 10.766-10.766 10.766-5.9492 0-10.77-4.8203-10.77-10.766 0-5.9492 4.8203-10.77 10.77-10.77 5.9453 0 10.766 4.8203 10.766 10.77"/>
  <path d="m188.3 99.504h248.7c9.0312 0 16.375-7.3438 16.375-16.375 0-9.0234-7.3438-16.367-16.375-16.367h-248.7c-9.0234 0-16.367 7.3438-16.367 16.367 0 9.0391 7.3438 16.375 16.367 16.375zm0-21.535h248.7c2.8477 0 5.168 2.3125 5.168 5.168s-2.3203 5.168-5.168 5.168h-248.7c-2.8477 0-5.168-2.3203-5.168-5.168 0-2.8477 2.3125-5.168 5.168-5.168z"/>
  <path d="m206.13 337.41h-11.199v46.969h-18.586l24.184 35.043 24.191-35.043h-18.59z"/>
  <path d="m318.61 337.41-24.184 35.051h18.582v46.961h11.199v-46.961h18.586z"/>
  <path d="m176.28 315.04h159.45c23.07 0 41.832-18.887 41.832-42.113v-7.3047c0-23.215-18.77-42.113-41.832-42.113h-10.078c-5.4141-11.664-20.078-28.281-46.199-27.238-9.8086-21.008-30.496-34.367-53.793-34.367-32.816 0-59.504 26.871-59.504 59.902 0 1.0156 0.03125 2.0469 0.10547 3.1211-18.473 4.5742-31.809 21.191-31.809 40.695v7.3047c-0.011719 23.227 18.754 42.113 41.828 42.113zm-30.633-49.414c0-15.672 11.754-28.809 27.328-30.543l5.7422-0.63281-0.81641-5.7188c-0.38281-2.6484-0.55078-4.8477-0.55078-6.9102 0-26.855 21.672-48.703 48.305-48.703 20.008 0 37.664 12.168 44.969 31.016l1.5195 3.9453 4.2148-0.39062c30.902-2.9531 39.824 22.129 40.168 23.168l1.2578 3.8711h17.938c16.887 0 30.633 13.863 30.633 30.902v7.3047c0 17.039-13.742 30.902-30.633 30.902l-159.44-0.003907c-16.887 0-30.633-13.863-30.633-30.902z"/>
 </g>
</svg>
